# MagicaVoxel @ Ephtracy

# group
o 

# material
mtllib exit-0.mtl
usemtl palette

# normals
vn -1 0 0
vn 1 0 0
vn 0 0 1
vn 0 0 -1
vn 0 -1 0
vn 0 1 0

# texcoords
vt 0.841797 0.5
vt 0.958984 0.5

# verts
v -2.5 0 0.5
v -2.5 0 -0.5
v -2.5 1.5 0.5
v -2.5 1.5 -0.5
v -0.2 0 0.3
v -0.2 0 0.2
v -0.2 0.1 0.3
v -0.2 0.1 0.2
v 1.2 0 0.4
v 1.2 0 0.3
v 1.2 0.1 0.4
v 1.2 0.1 0.3
v -0.3 0 0.3
v -0.3 0 0.2
v -0.3 0.1 0.3
v -0.3 0.1 0.2
v 1.1 0 0.4
v 1.1 0 0.3
v 1.1 0.1 0.4
v 1.1 0.1 0.3
v 2.5 0 0.5
v 2.5 0 -0.5
v 2.5 1.5 0.5
v 2.5 1.5 -0.5
v -2.5 0 0.5
v -2.5 1.5 0.5
v 2.5 0 0.5
v 2.5 1.5 0.5
v 1.1 0 0.3
v 1.1 0.1 0.3
v 1.2 0 0.3
v 1.2 0.1 0.3
v -0.3 0 0.2
v -0.3 0.1 0.2
v -0.2 0 0.2
v -0.2 0.1 0.2
v 1.1 0 0.4
v 1.1 0.1 0.4
v 1.2 0 0.4
v 1.2 0.1 0.4
v -0.3 0 0.3
v -0.3 0.1 0.3
v -0.2 0 0.3
v -0.2 0.1 0.3
v -2.5 0 -0.5
v -2.5 1.5 -0.5
v -2.1 0.2 -0.5
v -2.1 0.4 -0.5
v -2 0.4 -0.5
v -2 1.3 -0.5
v -1.9 0.2 -0.5
v -1.9 0.3 -0.5
v -1.8 0.5 -0.5
v -1.8 1.1 -0.5
v -1.6 0.5 -0.5
v -1.6 1.1 -0.5
v -1.5 0.2 -0.5
v -1.5 0.3 -0.5
v -1.4 0.4 -0.5
v -1.4 1.3 -0.5
v -1.3 0.2 -0.5
v -1.3 0.4 -0.5
v -1.1 0.2 -0.5
v -1.1 1.3 -0.5
v -0.9 0.4 -0.5
v -0.9 1.1 -0.5
v -0.7 0.4 -0.5
v -0.7 1.1 -0.5
v -0.5 0.2 -0.5
v -0.5 1.3 -0.5
v -0.3 0.2 -0.5
v -0.3 0.5 -0.5
v -0.3 0.9 -0.5
v -0.3 1.3 -0.5
v -0.2 0.5 -0.5
v -0.2 0.6 -0.5
v -0.2 0.8 -0.5
v -0.2 0.9 -0.5
v -0.0999999 0.2 -0.5
v -0.0999999 0.6 -0.5
v -0.0999999 0.8 -0.5
v -0.0999999 1.3 -0.5
v 0.1 0.2 -0.5
v 0.1 0.6 -0.5
v 0.1 0.8 -0.5
v 0.1 1.3 -0.5
v 0.2 0.5 -0.5
v 0.2 0.6 -0.5
v 0.2 0.8 -0.5
v 0.2 0.9 -0.5
v 0.3 0.2 -0.5
v 0.3 0.5 -0.5
v 0.3 0.9 -0.5
v 0.3 1.3 -0.5
v 0.5 0.2 -0.5
v 0.5 1.3 -0.5
v 0.7 0.2 -0.5
v 0.7 1.3 -0.5
v 0.8 0.2 -0.5
v 0.8 0.7 -0.5
v 1 0.4 -0.5
v 1 0.5 -0.5
v 1.1 0.4 -0.5
v 1.1 0.5 -0.5
v 1.1 0.7 -0.5
v 1.1 1.3 -0.5
v 1.3 0.2 -0.5
v 1.3 1.3 -0.5
v 1.5 0.2 -0.5
v 1.5 0.7 -0.5
v 1.5 0.8 -0.5
v 1.5 1.3 -0.5
v 1.7 0.4 -0.5
v 1.7 0.6 -0.5
v 1.7 0.9 -0.5
v 1.7 1.1 -0.5
v 1.8 0.7 -0.5
v 1.8 0.8 -0.5
v 1.9 0.4 -0.5
v 1.9 0.6 -0.5
v 1.9 0.9 -0.5
v 1.9 1.1 -0.5
v 2.1 0.2 -0.5
v 2.1 1.3 -0.5
v 2.5 0 -0.5
v 2.5 1.5 -0.5
v -2.5 0 0.5
v 2.5 0 0.5
v 1.1 0 0.4
v 1.2 0 0.4
v -0.3 0 0.3
v -0.2 0 0.3
v 1.1 0 0.3
v 1.2 0 0.3
v -0.3 0 0.2
v -0.2 0 0.2
v -2.5 0 -0.5
v 2.5 0 -0.5
v 1.1 0.1 0.4
v 1.2 0.1 0.4
v -0.3 0.1 0.3
v -0.2 0.1 0.3
v 1.1 0.1 0.3
v 1.2 0.1 0.3
v -0.3 0.1 0.2
v -0.2 0.1 0.2
v -2.5 1.5 0.5
v 2.5 1.5 0.5
v -2.5 1.5 -0.5
v 2.5 1.5 -0.5

# faces
f 3/1/1 2/1/1 1/1/1
f 4/1/1 2/1/1 3/1/1
f 7/1/1 6/1/1 5/1/1
f 8/1/1 6/1/1 7/1/1
f 11/1/1 10/1/1 9/1/1
f 12/1/1 10/1/1 11/1/1
f 13/1/2 14/1/2 15/1/2
f 15/1/2 14/1/2 16/1/2
f 17/1/2 18/1/2 19/1/2
f 19/1/2 18/1/2 20/1/2
f 21/1/2 22/1/2 23/1/2
f 23/1/2 22/1/2 24/1/2
f 27/1/3 26/1/3 25/1/3
f 28/1/3 26/1/3 27/1/3
f 31/1/3 30/1/3 29/1/3
f 32/1/3 30/1/3 31/1/3
f 35/1/3 34/1/3 33/1/3
f 36/1/3 34/1/3 35/1/3
f 37/1/4 38/1/4 39/1/4
f 39/1/4 38/1/4 40/1/4
f 41/1/4 42/1/4 43/1/4
f 43/1/4 42/1/4 44/1/4
f 45/1/4 46/1/4 47/1/4
f 47/1/4 46/1/4 48/1/4
f 47/2/4 48/2/4 49/2/4
f 48/1/4 46/1/4 49/1/4
f 49/1/4 46/1/4 50/1/4
f 45/1/4 47/1/4 51/1/4
f 47/2/4 49/2/4 51/2/4
f 49/2/4 50/2/4 51/2/4
f 51/2/4 50/2/4 52/2/4
f 52/2/4 50/2/4 53/2/4
f 53/2/4 50/2/4 54/2/4
f 52/2/4 53/2/4 55/2/4
f 53/1/4 54/1/4 55/1/4
f 54/2/4 50/2/4 56/2/4
f 55/1/4 54/1/4 56/1/4
f 45/1/4 51/1/4 57/1/4
f 51/1/4 52/1/4 57/1/4
f 55/2/4 56/2/4 58/2/4
f 57/1/4 52/1/4 58/1/4
f 52/2/4 55/2/4 58/2/4
f 57/2/4 58/2/4 59/2/4
f 58/2/4 56/2/4 59/2/4
f 50/1/4 46/1/4 60/1/4
f 59/2/4 56/2/4 60/2/4
f 56/2/4 50/2/4 60/2/4
f 57/2/4 59/2/4 61/2/4
f 45/1/4 57/1/4 61/1/4
f 59/1/4 60/1/4 62/1/4
f 61/2/4 59/2/4 62/2/4
f 45/1/4 61/1/4 63/1/4
f 61/1/4 62/1/4 63/1/4
f 60/1/4 46/1/4 64/1/4
f 63/1/4 62/1/4 64/1/4
f 62/1/4 60/1/4 64/1/4
f 63/2/4 64/2/4 65/2/4
f 65/2/4 64/2/4 66/2/4
f 63/2/4 65/2/4 67/2/4
f 65/1/4 66/1/4 67/1/4
f 66/2/4 64/2/4 68/2/4
f 67/1/4 66/1/4 68/1/4
f 45/1/4 63/1/4 69/1/4
f 63/2/4 67/2/4 69/2/4
f 67/2/4 68/2/4 69/2/4
f 68/2/4 64/2/4 70/2/4
f 69/2/4 68/2/4 70/2/4
f 64/1/4 46/1/4 70/1/4
f 45/1/4 69/1/4 71/1/4
f 69/1/4 70/1/4 71/1/4
f 71/1/4 70/1/4 72/1/4
f 72/1/4 70/1/4 73/1/4
f 70/1/4 46/1/4 74/1/4
f 73/1/4 70/1/4 74/1/4
f 72/1/4 73/1/4 75/1/4
f 71/2/4 72/2/4 75/2/4
f 75/1/4 73/1/4 76/1/4
f 76/1/4 73/1/4 77/1/4
f 73/2/4 74/2/4 78/2/4
f 77/1/4 73/1/4 78/1/4
f 45/1/4 71/1/4 79/1/4
f 71/2/4 75/2/4 79/2/4
f 75/2/4 76/2/4 79/2/4
f 76/1/4 77/1/4 80/1/4
f 79/2/4 76/2/4 80/2/4
f 77/2/4 78/2/4 81/2/4
f 80/1/4 77/1/4 81/1/4
f 74/1/4 46/1/4 82/1/4
f 81/2/4 78/2/4 82/2/4
f 78/2/4 74/2/4 82/2/4
f 79/1/4 80/1/4 83/1/4
f 45/1/4 79/1/4 83/1/4
f 80/2/4 81/2/4 84/2/4
f 83/1/4 80/1/4 84/1/4
f 81/1/4 82/1/4 85/1/4
f 84/2/4 81/2/4 85/2/4
f 82/1/4 46/1/4 86/1/4
f 85/1/4 82/1/4 86/1/4
f 83/2/4 84/2/4 87/2/4
f 84/1/4 85/1/4 88/1/4
f 87/2/4 84/2/4 88/2/4
f 85/2/4 86/2/4 89/2/4
f 88/1/4 85/1/4 89/1/4
f 89/2/4 86/2/4 90/2/4
f 45/1/4 83/1/4 91/1/4
f 83/2/4 87/2/4 91/2/4
f 89/1/4 90/1/4 92/1/4
f 91/2/4 87/2/4 92/2/4
f 87/1/4 88/1/4 92/1/4
f 88/1/4 89/1/4 92/1/4
f 90/2/4 86/2/4 93/2/4
f 92/1/4 90/1/4 93/1/4
f 86/1/4 46/1/4 94/1/4
f 93/2/4 86/2/4 94/2/4
f 91/1/4 92/1/4 95/1/4
f 45/1/4 91/1/4 95/1/4
f 93/1/4 94/1/4 95/1/4
f 92/1/4 93/1/4 95/1/4
f 94/1/4 46/1/4 96/1/4
f 95/1/4 94/1/4 96/1/4
f 45/1/4 95/1/4 97/1/4
f 95/2/4 96/2/4 97/2/4
f 96/1/4 46/1/4 98/1/4
f 97/2/4 96/2/4 98/2/4
f 45/1/4 97/1/4 99/1/4
f 97/1/4 98/1/4 99/1/4
f 99/1/4 98/1/4 100/1/4
f 99/2/4 100/2/4 101/2/4
f 101/2/4 100/2/4 102/2/4
f 99/2/4 101/2/4 103/2/4
f 101/1/4 102/1/4 103/1/4
f 102/2/4 100/2/4 104/2/4
f 103/1/4 102/1/4 104/1/4
f 100/1/4 98/1/4 105/1/4
f 104/2/4 100/2/4 105/2/4
f 98/1/4 46/1/4 106/1/4
f 105/1/4 98/1/4 106/1/4
f 104/2/4 105/2/4 107/2/4
f 45/1/4 99/1/4 107/1/4
f 105/2/4 106/2/4 107/2/4
f 99/2/4 103/2/4 107/2/4
f 103/2/4 104/2/4 107/2/4
f 106/1/4 46/1/4 108/1/4
f 107/2/4 106/2/4 108/2/4
f 45/1/4 107/1/4 109/1/4
f 107/1/4 108/1/4 109/1/4
f 109/1/4 108/1/4 110/1/4
f 110/1/4 108/1/4 111/1/4
f 108/1/4 46/1/4 112/1/4
f 111/1/4 108/1/4 112/1/4
f 109/2/4 110/2/4 113/2/4
f 113/2/4 110/2/4 114/2/4
f 111/2/4 112/2/4 115/2/4
f 115/2/4 112/2/4 116/2/4
f 110/1/4 111/1/4 117/1/4
f 114/2/4 110/2/4 117/2/4
f 111/2/4 115/2/4 118/2/4
f 117/1/4 111/1/4 118/1/4
f 109/2/4 113/2/4 119/2/4
f 113/1/4 114/1/4 119/1/4
f 117/2/4 118/2/4 120/2/4
f 119/1/4 114/1/4 120/1/4
f 114/2/4 117/2/4 120/2/4
f 115/1/4 116/1/4 121/1/4
f 120/2/4 118/2/4 121/2/4
f 118/2/4 115/2/4 121/2/4
f 116/2/4 112/2/4 122/2/4
f 121/1/4 116/1/4 122/1/4
f 120/2/4 121/2/4 123/2/4
f 45/1/4 109/1/4 123/1/4
f 121/2/4 122/2/4 123/2/4
f 109/2/4 119/2/4 123/2/4
f 119/2/4 120/2/4 123/2/4
f 122/2/4 112/2/4 124/2/4
f 123/2/4 122/2/4 124/2/4
f 112/1/4 46/1/4 124/1/4
f 45/1/4 123/1/4 125/1/4
f 123/1/4 124/1/4 125/1/4
f 124/1/4 46/1/4 126/1/4
f 125/1/4 124/1/4 126/1/4
f 129/1/5 128/1/5 127/1/5
f 130/1/5 128/1/5 129/1/5
f 131/1/5 129/1/5 127/1/5
f 132/1/5 129/1/5 131/1/5
f 133/1/5 129/1/5 132/1/5
f 134/1/5 128/1/5 130/1/5
f 135/1/5 131/1/5 127/1/5
f 136/1/5 133/1/5 132/1/5
f 136/1/5 134/1/5 133/1/5
f 137/1/5 135/1/5 127/1/5
f 137/1/5 136/1/5 135/1/5
f 138/1/5 134/1/5 136/1/5
f 138/1/5 136/1/5 137/1/5
f 138/1/5 128/1/5 134/1/5
f 143/1/5 140/1/5 139/1/5
f 144/1/5 140/1/5 143/1/5
f 145/1/5 142/1/5 141/1/5
f 146/1/5 142/1/5 145/1/5
f 147/1/6 148/1/6 149/1/6
f 149/1/6 148/1/6 150/1/6
