# MagicaVoxel @ Ephtracy

# group
o 

# material
mtllib startgame.mtl
usemtl palette

# normals
vn -1 0 0
vn 1 0 0
vn 0 0 1
vn 0 0 -1
vn 0 -1 0
vn 0 1 0

# texcoords
vt 0.904297 0.5
vt 0.958984 0.5

# verts
v -2.5 0 0.5
v -2.5 0 -0.5
v -2.5 1.5 0.5
v -2.5 1.5 -0.5
v 2.5 0 0.5
v 2.5 0 -0.5
v 2.5 1.5 0.5
v 2.5 1.5 -0.5
v -2.5 0 0.5
v -2.5 1.5 0.5
v 2.5 0 0.5
v 2.5 1.5 0.5
v -2.5 0 -0.5
v -2.5 1.5 -0.5
v -2.3 0.2 -0.5
v -2.3 0.7 -0.5
v -2.1 0.4 -0.5
v -2.1 0.5 -0.5
v -2 0.4 -0.5
v -2 0.5 -0.5
v -2 0.7 -0.5
v -2 1.3 -0.5
v -1.8 0.2 -0.5
v -1.8 1.3 -0.5
v -1.6 1.1 -0.5
v -1.6 1.3 -0.5
v -1.4 0.2 -0.5
v -1.4 1.1 -0.5
v -1.2 0.2 -0.5
v -1.2 1.1 -0.5
v -1 1.1 -0.5
v -1 1.3 -0.5
v -0.8 0.2 -0.5
v -0.8 1.3 -0.5
v -0.6 0.2 -0.5
v -0.6 0.5 -0.5
v -0.6 0.7 -0.5
v -0.6 1.1 -0.5
v -0.4 0.2 -0.5
v -0.4 0.5 -0.5
v -0.4 0.7 -0.5
v -0.4 1.1 -0.5
v -0.2 0.2 -0.5
v -0.2 1.3 -0.5
v 2.38419e-07 0.2 -0.5
v 2.38419e-07 1.3 -0.5
v 0.2 0.2 -0.5
v 0.2 0.5 -0.5
v 0.2 0.7 -0.5
v 0.2 1.3 -0.5
v 0.4 0.7 -0.5
v 0.4 1.3 -0.5
v 0.6 0.5 -0.5
v 0.6 1.3 -0.5
v 0.8 0.2 -0.5
v 0.8 1.3 -0.5
v 1 0.2 -0.5
v 1 0.5 -0.5
v 1 0.7 -0.5
v 1 1.1 -0.5
v 1.2 0.2 -0.5
v 1.2 0.5 -0.5
v 1.2 0.7 -0.5
v 1.2 1.1 -0.5
v 1.4 0.2 -0.5
v 1.4 1.3 -0.5
v 1.6 0.2 -0.5
v 1.6 1.3 -0.5
v 1.8 0.2 -0.5
v 1.8 0.6 -0.5
v 1.8 0.9 -0.5
v 1.8 1.3 -0.5
v 2.1 0.2 -0.5
v 2.1 0.6 -0.5
v 2.1 0.9 -0.5
v 2.1 1.3 -0.5
v 2.3 0.2 -0.5
v 2.3 1.3 -0.5
v 2.5 0 -0.5
v 2.5 1.5 -0.5
v -2.5 0 0.5
v 2.5 0 0.5
v -2.5 0 -0.5
v 2.5 0 -0.5
v -2.5 1.5 0.5
v 2.5 1.5 0.5
v -2.5 1.5 -0.5
v 2.5 1.5 -0.5

# faces
f 3/1/1 2/1/1 1/1/1
f 4/1/1 2/1/1 3/1/1
f 5/1/2 6/1/2 7/1/2
f 7/1/2 6/1/2 8/1/2
f 11/1/3 10/1/3 9/1/3
f 12/1/3 10/1/3 11/1/3
f 13/1/4 14/1/4 15/1/4
f 15/1/4 14/1/4 16/1/4
f 15/2/4 16/2/4 17/2/4
f 17/2/4 16/2/4 18/2/4
f 15/2/4 17/2/4 19/2/4
f 17/1/4 18/1/4 19/1/4
f 18/2/4 16/2/4 20/2/4
f 19/1/4 18/1/4 20/1/4
f 16/1/4 14/1/4 21/1/4
f 20/2/4 16/2/4 21/2/4
f 21/1/4 14/1/4 22/1/4
f 13/1/4 15/1/4 23/1/4
f 19/2/4 20/2/4 23/2/4
f 21/2/4 22/2/4 23/2/4
f 20/2/4 21/2/4 23/2/4
f 15/2/4 19/2/4 23/2/4
f 22/1/4 14/1/4 24/1/4
f 23/2/4 22/2/4 24/2/4
f 23/1/4 24/1/4 25/1/4
f 24/1/4 14/1/4 26/1/4
f 25/1/4 24/1/4 26/1/4
f 13/1/4 23/1/4 27/1/4
f 23/1/4 25/1/4 27/1/4
f 25/2/4 26/2/4 28/2/4
f 27/1/4 25/1/4 28/1/4
f 13/1/4 27/1/4 29/1/4
f 27/2/4 28/2/4 29/2/4
f 28/2/4 26/2/4 30/2/4
f 29/2/4 28/2/4 30/2/4
f 29/1/4 30/1/4 31/1/4
f 30/2/4 26/2/4 31/2/4
f 26/1/4 14/1/4 32/1/4
f 31/2/4 26/2/4 32/2/4
f 29/1/4 31/1/4 33/1/4
f 13/1/4 29/1/4 33/1/4
f 31/1/4 32/1/4 33/1/4
f 32/1/4 14/1/4 34/1/4
f 33/1/4 32/1/4 34/1/4
f 13/1/4 33/1/4 35/1/4
f 33/2/4 34/2/4 35/2/4
f 35/2/4 34/2/4 36/2/4
f 36/2/4 34/2/4 37/2/4
f 37/2/4 34/2/4 38/2/4
f 13/1/4 35/1/4 39/1/4
f 35/1/4 36/1/4 39/1/4
f 36/2/4 37/2/4 40/2/4
f 39/1/4 36/1/4 40/1/4
f 37/1/4 38/1/4 41/1/4
f 40/2/4 37/2/4 41/2/4
f 38/2/4 34/2/4 42/2/4
f 41/1/4 38/1/4 42/1/4
f 40/2/4 41/2/4 43/2/4
f 39/2/4 40/2/4 43/2/4
f 41/2/4 42/2/4 43/2/4
f 13/1/4 39/1/4 43/1/4
f 34/1/4 14/1/4 44/1/4
f 43/2/4 42/2/4 44/2/4
f 42/2/4 34/2/4 44/2/4
f 13/1/4 43/1/4 45/1/4
f 43/1/4 44/1/4 45/1/4
f 44/1/4 14/1/4 46/1/4
f 45/1/4 44/1/4 46/1/4
f 13/1/4 45/1/4 47/1/4
f 45/2/4 46/2/4 47/2/4
f 47/2/4 46/2/4 48/2/4
f 48/2/4 46/2/4 49/2/4
f 46/1/4 14/1/4 50/1/4
f 49/2/4 46/2/4 50/2/4
f 48/2/4 49/2/4 51/2/4
f 49/1/4 50/1/4 51/1/4
f 50/1/4 14/1/4 52/1/4
f 51/1/4 50/1/4 52/1/4
f 48/2/4 51/2/4 53/2/4
f 47/1/4 48/1/4 53/1/4
f 51/2/4 52/2/4 53/2/4
f 52/1/4 14/1/4 54/1/4
f 53/2/4 52/2/4 54/2/4
f 47/1/4 53/1/4 55/1/4
f 13/1/4 47/1/4 55/1/4
f 53/1/4 54/1/4 55/1/4
f 54/1/4 14/1/4 56/1/4
f 55/1/4 54/1/4 56/1/4
f 13/1/4 55/1/4 57/1/4
f 55/2/4 56/2/4 57/2/4
f 57/2/4 56/2/4 58/2/4
f 58/2/4 56/2/4 59/2/4
f 59/2/4 56/2/4 60/2/4
f 13/1/4 57/1/4 61/1/4
f 57/1/4 58/1/4 61/1/4
f 58/2/4 59/2/4 62/2/4
f 61/1/4 58/1/4 62/1/4
f 59/1/4 60/1/4 63/1/4
f 62/2/4 59/2/4 63/2/4
f 60/2/4 56/2/4 64/2/4
f 63/1/4 60/1/4 64/1/4
f 62/2/4 63/2/4 65/2/4
f 61/2/4 62/2/4 65/2/4
f 63/2/4 64/2/4 65/2/4
f 13/1/4 61/1/4 65/1/4
f 56/1/4 14/1/4 66/1/4
f 65/2/4 64/2/4 66/2/4
f 64/2/4 56/2/4 66/2/4
f 13/1/4 65/1/4 67/1/4
f 65/1/4 66/1/4 67/1/4
f 66/1/4 14/1/4 68/1/4
f 67/1/4 66/1/4 68/1/4
f 13/1/4 67/1/4 69/1/4
f 67/2/4 68/2/4 69/2/4
f 69/2/4 68/2/4 70/2/4
f 70/2/4 68/2/4 71/2/4
f 68/1/4 14/1/4 72/1/4
f 71/2/4 68/2/4 72/2/4
f 13/1/4 69/1/4 73/1/4
f 69/1/4 70/1/4 73/1/4
f 70/2/4 71/2/4 74/2/4
f 73/1/4 70/1/4 74/1/4
f 71/1/4 72/1/4 75/1/4
f 74/2/4 71/2/4 75/2/4
f 72/1/4 14/1/4 76/1/4
f 75/1/4 72/1/4 76/1/4
f 13/1/4 73/1/4 77/1/4
f 74/2/4 75/2/4 77/2/4
f 75/2/4 76/2/4 77/2/4
f 73/2/4 74/2/4 77/2/4
f 76/1/4 14/1/4 78/1/4
f 77/2/4 76/2/4 78/2/4
f 13/1/4 77/1/4 79/1/4
f 77/1/4 78/1/4 79/1/4
f 78/1/4 14/1/4 80/1/4
f 79/1/4 78/1/4 80/1/4
f 83/1/5 82/1/5 81/1/5
f 84/1/5 82/1/5 83/1/5
f 85/1/6 86/1/6 87/1/6
f 87/1/6 86/1/6 88/1/6
